<svg width="294" height="317" viewBox="0 0 294 317" fill="none" xmlns="http://www.w3.org/2000/svg">
<path opacity="0.2" d="M48.7271 207.747V99.1635C48.7271 94.1293 51.0964 89.3886 55.1227 86.3667L69.2095 75.7942C71.9798 73.715 75.35 72.5909 78.8138 72.5909H225.251C229.638 72.5909 233.833 74.3921 236.854 77.5731L288.534 131.994C291.357 134.967 292.932 138.911 292.932 143.012V288.089C292.932 292.418 291.177 296.563 288.069 299.576L275.786 311.487C272.8 314.381 268.806 316 264.648 316H121.317C117.07 316 112.997 314.312 109.996 311.307L53.4066 254.65C50.4101 251.65 48.7271 247.583 48.7271 243.343V207.106" stroke="#B8B8B8"/>
<path opacity="0.4" d="M32.8184 183.883V75.2998C32.8184 70.2656 35.1877 65.525 39.214 62.5031L53.3008 51.9305C56.0711 49.8513 59.4414 48.7273 62.9051 48.7273H209.343C213.73 48.7273 217.924 50.5285 220.945 53.7095L272.625 108.13C275.449 111.104 277.023 115.048 277.023 119.148V264.226C277.023 268.555 275.269 272.699 272.161 275.713L259.877 287.623C256.892 290.518 252.897 292.136 248.739 292.136H105.408C101.161 292.136 97.0887 290.448 94.0876 287.443L37.4979 230.786C34.5014 227.786 32.8184 223.719 32.8184 219.479V183.243" stroke="#B8B8B8"/>
<path opacity="0.6" d="M16.9092 160.02V51.4362C16.9092 46.402 19.2785 41.6613 23.3048 38.6395L37.3916 28.0669C40.1619 25.9877 43.5322 24.8636 46.996 24.8636H193.434C197.82 24.8636 202.015 26.6648 205.036 29.8458L256.716 84.2666C259.539 87.2399 261.114 91.1839 261.114 95.2844V240.362C261.114 244.691 259.36 248.835 256.252 251.849L243.968 263.76C240.982 266.654 236.988 268.273 232.83 268.273H89.4989C85.2521 268.273 81.1796 266.584 78.1784 263.58L21.5887 206.923C18.5923 203.923 16.9092 199.856 16.9092 195.616V159.379" stroke="#B8B8B8"/>
<path d="M1 136.156V27.5726C1 22.5384 3.36932 17.7977 7.39565 14.7758L21.4824 4.20326C24.2528 2.12405 27.623 1 31.0868 1H177.524C181.911 1 186.106 2.80118 189.126 5.9822L240.807 60.4029C243.63 63.3763 245.205 67.3203 245.205 71.4207V216.498C245.205 220.828 243.45 224.972 240.342 227.985L228.058 239.896C225.073 242.79 221.079 244.409 216.921 244.409H73.5897C69.3429 244.409 65.2704 242.721 62.2693 239.716L5.67955 183.059C2.68309 180.059 1 175.992 1 171.752V135.516" stroke="#FFCC99"/>
</svg>
